<svg xmlns="http://www.w3.org/2000/svg" width="173.75" height="40" viewBox="0 0 173.75 40">
  <g id="samarth-logo-white-full" transform="translate(5733 -1660)">
    <rect id="Container" width="173.75" height="40" rx="20" transform="translate(-5733 1660)" fill="#fff" opacity="0.1"/>
    <g id="Text" transform="translate(-5717.448 1672.115)">
      <path id="Path_1352" data-name="Path 1352" d="M11.9-8.292c-.319-1.764-1.742-4.016-5.5-4.016-2.89,0-5.4,2-5.4,4.845,0,2.231,1.551,3.931,4.1,4.42l2.061.382c1,.191,1.615.744,1.615,1.509,0,.935-.808,1.572-2.125,1.572A2.8,2.8,0,0,1,3.523-2.172L.442-1.428C.655.7,2.439,3.4,6.6,3.4c3.591,0,5.568-2.4,5.568-4.76,0-2.146-1.487-3.995-4.356-4.526L5.8-6.273C4.756-6.464,4.309-7,4.309-7.718A1.849,1.849,0,0,1,6.371-9.333,2.281,2.281,0,0,1,8.878-7.442ZM14.021.166a3.331,3.331,0,0,0,3.655,3.209,3.332,3.332,0,0,0,2.975-1.487,5.166,5.166,0,0,0,.106,1.19h2.911a10.379,10.379,0,0,1-.127-1.636V-3.723c0-2.168-1.254-4.08-4.675-4.08-3.1,0-4.5,2-4.632,3.506l2.805.574a1.7,1.7,0,0,1,1.806-1.551c1.02,0,1.551.531,1.551,1.148,0,.361-.191.637-.765.722l-2.486.382C15.4-2.767,14.021-1.7,14.021.166Zm4.441.871c-.893,0-1.254-.531-1.254-1.084,0-.744.51-1.063,1.19-1.169l2-.319v.468C20.4.569,19.418,1.037,18.462,1.037Zm11.454,2.04V-3a1.717,1.717,0,0,1,1.743-1.827,1.607,1.607,0,0,1,1.7,1.785v6.12h3.188v-6.1A1.716,1.716,0,0,1,38.31-4.828a1.6,1.6,0,0,1,1.679,1.785v6.12h3.124V-3.766A3.7,3.7,0,0,0,39.2-7.8,3.621,3.621,0,0,0,35.93-6.146,3.267,3.267,0,0,0,32.806-7.8a3.675,3.675,0,0,0-3.039,1.53V-7.484H26.686V3.077ZM45.62.166a3.331,3.331,0,0,0,3.655,3.209A3.332,3.332,0,0,0,52.25,1.887a5.166,5.166,0,0,0,.106,1.19h2.911a10.379,10.379,0,0,1-.127-1.636V-3.723c0-2.168-1.254-4.08-4.675-4.08-3.1,0-4.505,2-4.633,3.506l2.805.574a1.7,1.7,0,0,1,1.806-1.551c1.02,0,1.551.531,1.551,1.148,0,.361-.191.637-.765.722l-2.486.382C47-2.767,45.62-1.7,45.62.166Zm4.441.871c-.893,0-1.254-.531-1.254-1.084,0-.744.51-1.063,1.19-1.169l2-.319v.468C51.995.569,51.017,1.037,50.061,1.037ZM65-7.484a3.191,3.191,0,0,0-.85-.106,2.983,2.983,0,0,0-2.741,1.53V-7.484H58.285V3.077h3.23V-1.534c0-2.1,1.169-2.869,2.465-2.869A4.383,4.383,0,0,1,65-4.3Zm6.588-3.081H68.7v1.36a1.551,1.551,0,0,1-1.636,1.721H66.53v2.826H68.4V-.132a3.206,3.206,0,0,0,3.527,3.4,3.843,3.843,0,0,0,1.679-.3V.293a3.984,3.984,0,0,1-.85.106c-.7,0-1.169-.234-1.169-1.1V-4.658h2.061V-7.484H71.587Zm7.225,7.438a1.7,1.7,0,0,1,1.743-1.7A1.636,1.636,0,0,1,82.276-3V3.077h3.23v-6.63c0-2.316-1.232-4.208-4-4.208a3.965,3.965,0,0,0-2.7.956v-5.5h-3.23V3.077h3.23Z" transform="translate(-0.442 12.308)" fill="#fff"/>
      <path id="Path_1351" data-name="Path 1351" d="M3.736-3.468a2.012,2.012,0,0,1,2.1-1.785A1.894,1.894,0,0,1,7.965-3.468ZM8.2-.727A2.04,2.04,0,0,1,6.073.655a2.286,2.286,0,0,1-2.4-2.04h7.352a6.74,6.74,0,0,0,.064-1c0-3.4-2.019-5.419-5.291-5.419A5.327,5.327,0,0,0,.527-2.236,5.378,5.378,0,0,0,6.031,3.4,4.743,4.743,0,0,0,10.9.038Zm19.529,3.8V-4.977H20.056v2.848h4.526A3.571,3.571,0,0,1,20.863.336a4.4,4.4,0,0,1-4.526-4.781,4.369,4.369,0,0,1,4.441-4.717,3.629,3.629,0,0,1,3.74,2.635l3.23-1.126c-.659-2.1-2.656-4.654-6.97-4.654a7.656,7.656,0,0,0-7.841,7.863A7.493,7.493,0,0,0,20.566,3.4a4.991,4.991,0,0,0,4.229-1.849l.213,1.53ZM35.611.421a2.4,2.4,0,0,1-2.38-2.635,2.364,2.364,0,0,1,2.38-2.614,2.353,2.353,0,0,1,2.38,2.614A2.372,2.372,0,0,1,35.611.421Zm0-8.224A5.457,5.457,0,0,0,30-2.214a5.474,5.474,0,0,0,5.61,5.61,5.462,5.462,0,0,0,5.61-5.61A5.444,5.444,0,0,0,35.611-7.8Zm18.19.319H50.4L48.148-.918,45.7-7.484H42.2L46.533,3.077h3.251Z" transform="translate(89.579 12.308)" fill="#fff" opacity="0.5"/>
    </g>
  </g>
</svg>
